<mxfile host="app.diagrams.net" agent="Mozilla/5.0 (Windows NT 10.0; Win64; x64) AppleWebKit/537.36 (KHTML, like Gecko) Chrome/127.0.0.0 Safari/537.36" version="24.7.7">
  <diagram name="Pagina-1" id="EiL_qrAfyv7YwIQUWh2J">
    <mxGraphModel>
      <root>
        <mxCell id="0" />
        <mxCell id="1" parent="0" />
        <mxCell id="2" value="&lt;&lt;contract&gt;&gt;&#xa;FactoryContract" style="swimlane;fontStyle=1;align=center;verticalAlign=top;childLayout=stackLayout;horizontal=1;startSize=40.349998474121094;horizontalStack=0;resizeParent=1;resizeParentMax=0;resizeLast=0;collapsible=0;marginBottom=0;" vertex="1" parent="1">
          <mxGeometry x="8" y="8" width="484" height="169" as="geometry" />
        </mxCell>
        <mxCell id="3" style="line;strokeWidth=1;fillColor=none;align=left;verticalAlign=middle;spacingTop=-1;spacingLeft=3;spacingRight=3;rotatable=0;labelPosition=right;points=[];portConstraint=eastwest;strokeColor=inherit;" vertex="1" parent="2">
          <mxGeometry y="40" width="484" height="8" as="geometry" />
        </mxCell>
        <mxCell id="4" value="-deployNFT(name: string, symbol: string, owner: address) : : NFT" style="text;strokeColor=none;fillColor=none;align=left;verticalAlign=top;spacingLeft=4;spacingRight=4;overflow=hidden;rotatable=0;points=[[0,0.5],[1,0.5]];portConstraint=eastwest;" vertex="1" parent="2">
          <mxGeometry y="48" width="484" height="27" as="geometry" />
        </mxCell>
        <mxCell id="5" value="-updateOwner(nft: NFT, newOwner: address) : : void" style="text;strokeColor=none;fillColor=none;align=left;verticalAlign=top;spacingLeft=4;spacingRight=4;overflow=hidden;rotatable=0;points=[[0,0.5],[1,0.5]];portConstraint=eastwest;" vertex="1" parent="2">
          <mxGeometry y="75" width="484" height="27" as="geometry" />
        </mxCell>
        <mxCell id="6" value="-addRecordCompany(nft: NFT, company: string) : : void" style="text;strokeColor=none;fillColor=none;align=left;verticalAlign=top;spacingLeft=4;spacingRight=4;overflow=hidden;rotatable=0;points=[[0,0.5],[1,0.5]];portConstraint=eastwest;" vertex="1" parent="2">
          <mxGeometry y="102" width="484" height="27" as="geometry" />
        </mxCell>
        <mxCell id="7" value="-removeRecordCompany(nft: NFT, company: string) : : void" style="text;strokeColor=none;fillColor=none;align=left;verticalAlign=top;spacingLeft=4;spacingRight=4;overflow=hidden;rotatable=0;points=[[0,0.5],[1,0.5]];portConstraint=eastwest;" vertex="1" parent="2">
          <mxGeometry y="129" width="484" height="27" as="geometry" />
        </mxCell>
        <mxCell id="8" value="&lt;&lt;contract&gt;&gt;&#xa;NFT" style="swimlane;fontStyle=1;align=center;verticalAlign=top;childLayout=stackLayout;horizontal=1;startSize=40.349998474121094;horizontalStack=0;resizeParent=1;resizeParentMax=0;resizeLast=0;collapsible=0;marginBottom=0;" vertex="1" parent="1">
          <mxGeometry x="151" y="227" width="198" height="169" as="geometry" />
        </mxCell>
        <mxCell id="9" value="- name: string" style="text;strokeColor=none;fillColor=none;align=left;verticalAlign=top;spacingLeft=4;spacingRight=4;overflow=hidden;rotatable=0;points=[[0,0.5],[1,0.5]];portConstraint=eastwest;" vertex="1" parent="8">
          <mxGeometry y="27" width="198" height="27" as="geometry" />
        </mxCell>
        <mxCell id="10" value="- symbol: string" style="text;strokeColor=none;fillColor=none;align=left;verticalAlign=top;spacingLeft=4;spacingRight=4;overflow=hidden;rotatable=0;points=[[0,0.5],[1,0.5]];portConstraint=eastwest;" vertex="1" parent="8">
          <mxGeometry y="54" width="198" height="27" as="geometry" />
        </mxCell>
        <mxCell id="11" value="- owner: address" style="text;strokeColor=none;fillColor=none;align=left;verticalAlign=top;spacingLeft=4;spacingRight=4;overflow=hidden;rotatable=0;points=[[0,0.5],[1,0.5]];portConstraint=eastwest;" vertex="1" parent="8">
          <mxGeometry y="81" width="198" height="27" as="geometry" />
        </mxCell>
        <mxCell id="12" value="- recordCompanies: array" style="text;strokeColor=none;fillColor=none;align=left;verticalAlign=top;spacingLeft=4;spacingRight=4;overflow=hidden;rotatable=0;points=[[0,0.5],[1,0.5]];portConstraint=eastwest;" vertex="1" parent="8">
          <mxGeometry y="108" width="198" height="27" as="geometry" />
        </mxCell>
        <mxCell id="13" style="line;strokeWidth=1;fillColor=none;align=left;verticalAlign=middle;spacingTop=-1;spacingLeft=3;spacingRight=3;rotatable=0;labelPosition=right;points=[];portConstraint=eastwest;strokeColor=inherit;" vertex="1" parent="8">
          <mxGeometry y="134" width="198" height="13" as="geometry" />
        </mxCell>
        <mxCell id="14" value="" style="curved=1;startArrow=none;endArrow=open;endSize=12;exitX=0.5;exitY=1;entryX=0.5;entryY=0;" edge="1" parent="1" source="2" target="8">
          <mxGeometry relative="1" as="geometry">
            <Array as="points" />
          </mxGeometry>
        </mxCell>
      </root>
    </mxGraphModel>
  </diagram>
</mxfile>
